<svg width="70" height="70" fill="none" xmlns="http://www.w3.org/2000/svg"><circle cx="35" cy="35" r="34" stroke="#009100" stroke-width="2"/><path d="M26.615 20v3.937l-4.422-2.546-1.31 2.087 2.42 1.392H19V48h7.615v-2.435H21.54v-18.26h10.188a6.477 6.477 0 013.773-1.218c.447 0 .866.051 1.27.124V24.87h-4.302l2.418-1.392-1.31-2.087-4.422 2.546V20h-2.539zm8.885 8.522c-2.088 0-3.808 1.65-3.808 3.652 0 .428.096.833.239 1.217h-2.777V48H52V33.391h-2.777c.153-.389.234-.801.239-1.217 0-2.003-1.72-3.652-3.808-3.652-2.221 0-3.73 1.616-4.72 2.968-.134.179-.239.358-.357.534-.12-.176-.224-.353-.357-.536-.992-1.35-2.499-2.966-4.72-2.966zm0 2.434c.793 0 1.825.817 2.618 1.903.193.266.164.282.318.535H35.5c-.718 0-1.27-.529-1.27-1.218-.002-.16.029-.32.091-.47a1.22 1.22 0 01.275-.398 1.296 1.296 0 01.904-.352zm10.154 0c.718 0 1.27.529 1.27 1.218s-.552 1.217-1.27 1.217h-2.936c.155-.252.124-.267.317-.533.795-1.083 1.826-1.901 2.619-1.901zm-13.962 4.87h7.616v9.74h-7.616v-9.74zm10.154 0h7.616v9.74h-7.616v-9.74z" fill="#009100"/></svg>