<svg width="24" height="24" fill="none" xmlns="http://www.w3.org/2000/svg"><g id="Icon/Outline/arrow-ios-down"><path id="Mask" fill-rule="evenodd" clip-rule="evenodd" d="M12 16a.993.993 0 01-.64-.232l-6-5a1 1 0 111.28-1.536l5.371 4.476 5.362-4.315a1 1 0 011.254 1.558l-6 4.828A1 1 0 0112 16z" fill="#482A06"/><mask id="mask0" maskUnits="userSpaceOnUse" x="5" y="9" width="14" height="7"><path id="Mask_2" fill-rule="evenodd" clip-rule="evenodd" d="M12 16a.993.993 0 01-.64-.232l-6-5a1 1 0 111.28-1.536l5.371 4.476 5.362-4.315a1 1 0 011.254 1.558l-6 4.828A1 1 0 0112 16z" fill="#fff"/></mask><g mask="url(#mask0)"><g id="🎨 Color"><path id="Base" fill="#482A06" d="M0 0h24v24H0z"/></g></g></g></svg>