<svg width="24" height="24" fill="none" xmlns="http://www.w3.org/2000/svg"><g id="Icon/Outline/arrow-circle-right"><path id="Mask" fill-rule="evenodd" clip-rule="evenodd" d="M16.999 12.005L17 12c0-.033-.016-.06-.019-.092a.937.937 0 00-.057-.282c-.027-.068-.073-.122-.114-.182-.031-.044-.048-.095-.086-.135l-2.863-3a1 1 0 10-1.447 1.381l1.25 1.31H8a1 1 0 100 2h5.586l-1.293 1.293a.999.999 0 101.414 1.414l3-3a.994.994 0 00.292-.702zM12 20c-4.411 0-8-3.589-8-8s3.589-8 8-8 8 3.589 8 8-3.589 8-8 8zm0-18C6.486 2 2 6.486 2 12s4.486 10 10 10 10-4.486 10-10S17.514 2 12 2z" fill="#009100"/><mask id="mask0" maskUnits="userSpaceOnUse" x="2" y="2" width="20" height="20"><path id="Mask_2" fill-rule="evenodd" clip-rule="evenodd" d="M16.999 12.005L17 12c0-.033-.016-.06-.019-.092a.937.937 0 00-.057-.282c-.027-.068-.073-.122-.114-.182-.031-.044-.048-.095-.086-.135l-2.863-3a1 1 0 10-1.447 1.381l1.25 1.31H8a1 1 0 100 2h5.586l-1.293 1.293a.999.999 0 101.414 1.414l3-3a.994.994 0 00.292-.702zM12 20c-4.411 0-8-3.589-8-8s3.589-8 8-8 8 3.589 8 8-3.589 8-8 8zm0-18C6.486 2 2 6.486 2 12s4.486 10 10 10 10-4.486 10-10S17.514 2 12 2z" fill="#fff"/></mask><g mask="url(#mask0)"><g id="🎨 Color"><path id="Base" fill="#009100" d="M0 0h24v24H0z"/></g></g></g></svg>