<svg width="40" height="40" fill="none" xmlns="http://www.w3.org/2000/svg"><path fill-rule="evenodd" clip-rule="evenodd" d="M11 6.667A4.337 4.337 0 006.666 11c0 12.313 10.019 22.333 22.334 22.333a4.339 4.339 0 004.298-4.88l-7.7-1.766c-.153.293-.322.611-.475.908-.76 1.45-1.31 2.503-2.713 1.938C16.9 27.6 12.4 23.1 10.443 17.523c-.595-1.308.538-1.901 1.975-2.651l.895-.469-1.767-7.701A4.34 4.34 0 0011 6.667zm18 30C14.846 36.667 3.333 25.153 3.333 11c0-4.228 3.438-7.667 7.667-7.667.433 0 .861.037 1.276.109.405.065.812.168 1.209.305.541.188.95.643 1.078 1.203l2.282 9.94a1.663 1.663 0 01-.422 1.527c-.227.236-.232.241-2.298 1.323 1.673 3.623 4.581 6.522 8.131 8.138 1.084-2.068 1.09-2.075 1.327-2.301.407-.39.983-.542 1.527-.422l9.941 2.282a1.663 1.663 0 011.2 1.076c.137.394.24.8.309 1.219.07.411.106.838.106 1.268 0 4.228-3.44 7.667-7.666 7.667z" fill="#009100"/><mask id="mask0" maskUnits="userSpaceOnUse" x="3" y="3" width="34" height="34"><path fill-rule="evenodd" clip-rule="evenodd" d="M11 6.667A4.337 4.337 0 006.666 11c0 12.313 10.019 22.333 22.334 22.333a4.339 4.339 0 004.298-4.88l-7.7-1.766c-.153.293-.322.611-.475.908-.76 1.45-1.31 2.503-2.713 1.938C16.9 27.6 12.4 23.1 10.443 17.523c-.595-1.308.538-1.901 1.975-2.651l.895-.469-1.767-7.701A4.34 4.34 0 0011 6.667zm18 30C14.846 36.667 3.333 25.153 3.333 11c0-4.228 3.438-7.667 7.667-7.667.433 0 .861.037 1.276.109.405.065.812.168 1.209.305.541.188.95.643 1.078 1.203l2.282 9.94a1.663 1.663 0 01-.422 1.527c-.227.236-.232.241-2.298 1.323 1.673 3.623 4.581 6.522 8.131 8.138 1.084-2.068 1.09-2.075 1.327-2.301.407-.39.983-.542 1.527-.422l9.941 2.282a1.663 1.663 0 011.2 1.076c.137.394.24.8.309 1.219.07.411.106.838.106 1.268 0 4.228-3.44 7.667-7.666 7.667z" fill="#fff"/></mask><g mask="url(#mask0)"><path fill="#009100" d="M0 0h40v40H0z"/></g></svg>