<svg width="40" height="40" fill="none" xmlns="http://www.w3.org/2000/svg"><path fill-rule="evenodd" clip-rule="evenodd" d="M20 18.332a2.503 2.503 0 01-2.5-2.5c0-1.378 1.122-2.5 2.5-2.5 1.379 0 2.5 1.122 2.5 2.5 0 1.379-1.121 2.5-2.5 2.5zM20 10a5.84 5.84 0 00-5.833 5.833A5.84 5.84 0 0020 21.666a5.84 5.84 0 005.834-5.834A5.84 5.84 0 0020 10zm0 22.744c-2.791-2.64-10-10.051-10-16.206 0-5.442 4.485-9.87 10-9.87s10 4.428 10 9.87c0 6.155-7.208 13.566-10 16.206zm0-29.41c-7.351 0-13.333 5.922-13.333 13.204 0 9.125 11.748 19.298 12.248 19.726a1.664 1.664 0 002.17 0c.5-.428 12.249-10.601 12.249-19.726 0-7.282-5.982-13.204-13.334-13.204z" fill="#009100"/><mask id="mask0" maskUnits="userSpaceOnUse" x="6" y="3" width="28" height="34"><path fill-rule="evenodd" clip-rule="evenodd" d="M20 18.332a2.503 2.503 0 01-2.5-2.5c0-1.378 1.122-2.5 2.5-2.5 1.379 0 2.5 1.122 2.5 2.5 0 1.379-1.121 2.5-2.5 2.5zM20 10a5.84 5.84 0 00-5.833 5.833A5.84 5.84 0 0020 21.666a5.84 5.84 0 005.834-5.834A5.84 5.84 0 0020 10zm0 22.744c-2.791-2.64-10-10.051-10-16.206 0-5.442 4.485-9.87 10-9.87s10 4.428 10 9.87c0 6.155-7.208 13.566-10 16.206zm0-29.41c-7.351 0-13.333 5.922-13.333 13.204 0 9.125 11.748 19.298 12.248 19.726a1.664 1.664 0 002.17 0c.5-.428 12.249-10.601 12.249-19.726 0-7.282-5.982-13.204-13.334-13.204z" fill="#fff"/></mask><g mask="url(#mask0)"><path fill="#009100" d="M0 0h40v40H0z"/></g></svg>