<svg width="20" height="20" fill="none" xmlns="http://www.w3.org/2000/svg"><path fill-rule="evenodd" clip-rule="evenodd" d="M15.821 14.121c-.24.682-1.199 1.247-1.963 1.412-.523.11-1.205.199-3.503-.754C7.774 13.71 4.19 9.901 4.19 7.366c0-1.29.744-2.793 2.045-2.793.626 0 .764.012.97.507.241.582.829 2.016.899 2.163.289.603-.294.956-.717 1.482-.135.158-.288.329-.117.623.17.288.758 1.246 1.622 2.015 1.116.995 2.021 1.312 2.345 1.447.241.1.53.077.705-.111.223-.241.5-.641.782-1.035.2-.283.452-.318.717-.218.18.063 2.454 1.119 2.55 1.288.071.123.071.705-.17 1.387zM10.002 0h-.005C4.484 0 0 4.485 0 10c0 2.187.705 4.215 1.904 5.86L.658 19.578l3.843-1.229A9.923 9.923 0 0010.002 20C15.515 20 20 15.515 20 10S15.515 0 10.002 0z" fill="#009100"/></svg>