<svg width="19" height="19" fill="none" xmlns="http://www.w3.org/2000/svg"><path fill-rule="evenodd" clip-rule="evenodd" d="M0 9.5V15a4 4 0 004 4h11a4 4 0 004-4V4a4 4 0 00-4-4H4a4 4 0 00-4 4v5.5zm10.242-3.191c0 .04.053.074.117.074.296 0 .329.157.329 1.59 0 1.194.015 1.379.114 1.379.14 0 .48-.328.48-.463 0-.054.066-.147.148-.205.081-.06.148-.16.148-.223 0-.064.067-.164.149-.223.081-.059.148-.159.148-.222 0-.064.067-.164.148-.223.082-.059.149-.16.149-.223s.067-.163.148-.222c.082-.06.149-.151.149-.205 0-.053.116-.213.257-.354a.878.878 0 01.621-.258h.832c1.285 0 1.407.034 1.407.387a.394.394 0 01-.149.281c-.081.06-.148.167-.148.24 0 .072-.033.131-.074.131-.041 0-.074.06-.074.132 0 .073-.067.18-.149.24-.082.058-.148.158-.148.222s-.067.164-.149.223c-.081.059-.148.159-.148.222 0 .064-.067.164-.149.223-.081.059-.148.166-.148.24 0 .072-.033.131-.074.131-.041 0-.074.06-.074.132 0 .073-.067.18-.149.24a.406.406 0 00-.148.306c0 .11-.042.22-.093.244-.074.034-.074.052 0 .086.051.024.093.108.093.186s.033.142.074.142c.04 0 .074.052.074.116 0 .063.2.312.445.552.245.24.446.474.446.52 0 .046.167.246.37.445.383.372.458.593.266.784-.084.084-.37.107-1.336.107-.77 0-1.23-.028-1.23-.075 0-.04-.052-.074-.116-.074s-.279-.167-.478-.371c-.199-.204-.4-.371-.447-.371-.048 0-.18-.1-.295-.223-.114-.122-.261-.222-.326-.222-.066 0-.12-.034-.12-.075 0-.04-.1-.074-.222-.074-.173 0-.223.033-.223.149 0 .081-.033.148-.074.148-.04 0-.074.167-.074.371s-.033.371-.074.371c-.041 0-.074.067-.074.149 0 .115-.05.148-.223.148-.122 0-.223.034-.223.074 0 .045-.321.075-.816.075-.495 0-.816-.03-.816-.075 0-.04-.1-.074-.223-.074s-.223-.033-.223-.074c0-.041-.06-.074-.132-.074-.073 0-.18-.067-.239-.149-.059-.082-.15-.148-.203-.148-.116 0-1.8-1.672-1.8-1.788 0-.045-.101-.176-.223-.29-.123-.115-.223-.254-.223-.31 0-.057-.067-.151-.149-.21-.081-.059-.148-.159-.148-.223 0-.063-.067-.163-.148-.222-.082-.06-.149-.167-.149-.24 0-.072-.033-.131-.074-.131-.04 0-.074-.067-.074-.149 0-.081-.034-.148-.075-.148-.04 0-.074-.067-.074-.149 0-.081-.033-.148-.074-.148-.04 0-.074-.067-.074-.149 0-.081-.034-.148-.074-.148-.041 0-.075-.067-.075-.148 0-.082-.033-.149-.074-.149-.04 0-.074-.1-.074-.222 0-.123-.033-.223-.074-.223-.041 0-.075-.067-.075-.149 0-.081-.033-.148-.074-.148-.04 0-.074-.134-.074-.297 0-.164.133-.297.297-.297h.783c1.047 0 1.085.006 1.261.182.1.1.183.234.183.297 0 .063.033.115.074.115.04 0 .074.067.074.148 0 .082.033.149.074.149.041 0 .074.06.074.132 0 .073.067.18.149.239.081.059.148.166.148.239 0 .073.034.132.074.132.041 0 .075.053.075.119 0 .065.1.212.222.326.123.115.223.247.223.295 0 .118.19.3.312.3.055 0 .149.066.208.148a.405.405 0 00.313.148.206.206 0 00.206-.206v-.907c0-.693-.028-1.114-.074-1.114-.041 0-.074-.1-.074-.222 0-.123-.034-.223-.075-.223-.04 0-.074-.06-.074-.132 0-.073-.067-.18-.148-.239-.082-.059-.149-.133-.149-.165s.601-.058 1.336-.058c.841 0 1.336.028 1.336.075z" fill="#009100"/></svg>