<svg width="282" height="111" fill="none" xmlns="http://www.w3.org/2000/svg"><path fill-rule="evenodd" clip-rule="evenodd" d="M22.618 49.332v7.364h3.26V52.48h16.19v4.216h3.261v-7.364h-2.023L35.8 31.877h-3.626l-7.561 17.455h-1.996zm11.3-13.633l5.733 13.745H28.183L33.917 35.7zm15.29 16.78h15.263v-3.09H52.637V43.71H63.01v-3.092H52.637V35.11H64.33v-3.092H49.208V52.48zm19.816 0h3.457v-6.66h4.16c4.47 0 8.152-2.334 8.152-6.943v-.085c0-4.047-3.036-6.774-7.758-6.774h-8.01V52.48zm3.457-9.753v-7.589h4.273c2.783 0 4.553 1.293 4.553 3.767v.056c0 2.22-1.742 3.766-4.553 3.766H72.48zm16.303 9.754h15.263v-3.092H92.213V43.71h10.372v-3.092H92.213V35.11h11.693v-3.092H88.784V52.48zm57.52-13.801c0 3.288 2.136 5.368 5.087 6.127l-5.734 7.674h4.132l5.313-7.224h4.413v7.224h3.457V32.017h-8.489c-4.975 0-8.179 2.277-8.179 6.634v.028zm13.211 3.513h-5.257c-2.698 0-4.441-1.264-4.441-3.541v-.028c0-2.22 1.631-3.486 4.329-3.486h5.369v7.055zm9.022 10.288h3.457v-8.685h9.979v8.685h3.457V32.017h-3.457v8.573h-9.979v-8.573h-3.457V52.48zm22.43 0h3.458v-8.685h9.978v8.685h3.457V32.017h-3.457v8.573h-9.978v-8.573h-3.458V52.48zm22.43 0h7.618c4.947 0 8.151-2.558 8.151-6.858v-.029c0-4.356-3.148-6.69-7.898-6.69h-4.413v-6.886h-3.458V52.48zm3.458-3.12v-7.364h4.328c2.811 0 4.498 1.264 4.498 3.626v.028c0 2.36-1.771 3.71-4.582 3.71h-4.244zm15.74 3.12h3.457V32.017h-3.457V52.48zM250.5 30.387c2.81 0 4.75-1.377 4.975-3.85h-2.417c-.366.927-1.097 1.46-2.558 1.46-1.462 0-2.193-.533-2.558-1.46h-2.417c.225 2.473 2.164 3.85 4.975 3.85zm8.882 22.093V32.017h-3.289l-11.018 14.644V32.017h-3.457V52.48h2.979l11.327-15.038V52.48h3.458zm-154.56 24.178c3.879 0 6.1-1.406 8.292-3.598l-2.22-2.249c-1.771 1.687-3.401 2.67-5.959 2.67-3.963 0-6.887-3.26-6.887-7.392v-.056c0-4.076 2.924-7.336 6.887-7.336 2.389 0 4.132.984 5.79 2.558l2.248-2.558c-1.967-1.883-4.244-3.176-8.01-3.176-6.156 0-10.54 4.722-10.54 10.568v.056c0 5.875 4.44 10.513 10.399 10.513zm50.83-.337V55.858h-3.288l-11.019 14.644V55.858h-3.457V76.32h2.98l11.327-15.038V76.32h3.457zm15.684-20.604h-3.063l-8.826 20.604h3.71l6.577-15.853 6.606 15.853h3.822l-8.826-20.604zm12.649 20.604h7.617c4.947 0 8.152-2.53 8.152-6.887v-.028c0-4.329-3.149-6.662-7.899-6.662h-4.413v-6.886h-3.457V76.32zm3.457-3.12v-7.365h4.329c2.811 0 4.497 1.265 4.497 3.626v.056c0 2.362-1.799 3.683-4.582 3.683h-4.244z" fill="#664008"/><path fill-rule="evenodd" clip-rule="evenodd" d="M28.632 87.577h1.025v-3.214l1.559 2.303h.035l1.568-2.33v3.241h1.033v-4.8h-1.094l-1.507 2.286-1.515-2.286h-1.104v4.8zm8.085.096c.744 0 1.252-.315 1.576-.709v.613h1.025v-2.855c0-.63-.158-1.13-.508-1.472-.342-.341-.876-.534-1.585-.534-.762 0-1.28.158-1.805.394l.28.823c.447-.184.833-.297 1.384-.297.797 0 1.218.376 1.218 1.077v.123c-.377-.132-.762-.202-1.314-.202-1.173 0-1.988.517-1.988 1.542v.017c0 .955.806 1.48 1.717 1.48zm.28-.77c-.534 0-.964-.263-.964-.754v-.017c0-.517.42-.823 1.157-.823.455 0 .84.087 1.13.192v.35c0 .623-.579 1.052-1.323 1.052zm5.947.78c.92 0 1.48-.377 1.962-.903l-.64-.622c-.358.36-.744.605-1.27.605-.867 0-1.48-.701-1.48-1.577v-.018c0-.867.605-1.567 1.428-1.567.56 0 .92.262 1.261.621l.666-.709c-.447-.49-1.016-.832-1.918-.832-1.437 0-2.488 1.147-2.488 2.505v.017c0 1.358 1.051 2.48 2.479 2.48zm4.257-.106h1.051v-3.854h1.734v-.946h-4.52v.946h1.735v3.854zm5.763.105c.885 0 1.507-.341 1.971-.893l-.63-.552c-.377.377-.763.578-1.323.578-.736 0-1.297-.447-1.41-1.261h3.556c.008-.105.008-.202.008-.298 0-1.384-.77-2.575-2.286-2.575-1.366 0-2.338 1.12-2.338 2.496v.018c0 1.48 1.068 2.487 2.452 2.487zm-1.41-2.829c.105-.77.587-1.305 1.288-1.305.735 0 1.182.57 1.252 1.305h-2.54zm4.782 4.178h1.051v-2.216c.35.456.859.858 1.665.858 1.147 0 2.233-.902 2.233-2.487v-.018c0-1.585-1.103-2.487-2.233-2.487-.797 0-1.305.403-1.665.92v-.824h-1.05v6.254zm2.47-2.269c-.762 0-1.436-.63-1.436-1.576v-.018c0-.946.674-1.576 1.436-1.576.763 0 1.41.63 1.41 1.576v.018c0 .972-.639 1.576-1.41 1.576zm5.921.92c.92 0 1.48-.376 1.962-.902l-.639-.622c-.36.36-.744.605-1.27.605-.867 0-1.48-.701-1.48-1.577v-.018c0-.867.604-1.567 1.427-1.567.561 0 .92.262 1.262.621l.665-.709c-.446-.49-1.016-.832-1.918-.832-1.436 0-2.487 1.147-2.487 2.505v.017c0 1.358 1.05 2.48 2.478 2.48zm4.108-4.905h-1.05v4.8h1.05v-1.962h.614l1.62 1.962h1.279l-2.094-2.452 2.024-2.348H70.98l-1.559 1.918h-.587v-1.918zm5.694 4.896c.744 0 1.252-.315 1.576-.709v.613h1.025v-2.855c0-.63-.157-1.13-.508-1.472-.341-.341-.876-.534-1.585-.534-.762 0-1.28.158-1.805.394l.28.823c.447-.184.833-.297 1.385-.297.797 0 1.217.376 1.217 1.077v.123c-.377-.132-.762-.202-1.314-.202-1.173 0-1.988.517-1.988 1.542v.017c0 .955.806 1.48 1.717 1.48zm.28-.77c-.534 0-.963-.263-.963-.754v-.017c0-.517.42-.823 1.156-.823.455 0 .84.087 1.13.192v.35c0 .623-.579 1.052-1.323 1.052zm6.788-.981v1.655h1.042v-4.8h-2.294c-1.183 0-1.954.57-1.954 1.586v.008c0 .745.447 1.235 1.139 1.437l-1.305 1.77h1.209l1.19-1.656h.973zm0-2.313v1.524h-1.226c-.596.01-.937-.306-.937-.753v-.009c0-.49.359-.762.946-.762h1.217zm7.375 2.786l-1.401-3.618h-1.13l2.023 4.8c-.201.447-.394.596-.718.596a1.34 1.34 0 01-.657-.193l-.36.797c.343.184.675.29 1.122.29.78 0 1.191-.377 1.585-1.358l1.918-4.932h-1.103l-1.279 3.618zm4.721-3.653l-1.725 3.89h-.544v2.154h.955v-1.209h3.732v1.209h.954V86.63h-.534l-1.734-3.889h-1.104zm.543 1.069l1.2 2.855h-2.409l1.21-2.855zm3.82 3.766h.954l2.409-3.206v3.206h1.051v-4.8h-.999l-2.365 3.153v-3.153h-1.05v4.8zm5.885 0h2.444c1.095 0 1.848-.447 1.848-1.34 0-.64-.377-.963-.964-1.147.456-.202.762-.482.762-1.069 0-.797-.639-1.244-1.646-1.244h-2.444v4.8zm3.057-3.425c0 .377-.272.631-.832.631h-1.191v-1.226h1.226c.525 0 .797.236.797.595zm.201 2.024c0 .394-.306.621-.867.621h-1.357v-1.27h1.305c.622 0 .919.237.919.649zm2.243 1.401h.954l2.409-3.206v3.206h1.051v-4.8h-.998l-2.365 3.153v-3.153h-1.051v4.8zm7.217 0h1.051v-3.854h1.734v-.946h-4.519v.946h1.734v3.854zm5.763.105c.885 0 1.507-.341 1.971-.893l-.63-.552c-.377.377-.763.578-1.323.578-.736 0-1.296-.447-1.41-1.261h3.556c.009-.105.009-.202.009-.298 0-1.384-.771-2.575-2.286-2.575-1.367 0-2.339 1.12-2.339 2.496v.018c0 1.48 1.069 2.487 2.452 2.487zm-1.41-2.829c.105-.77.587-1.305 1.288-1.305.735 0 1.182.57 1.252 1.305h-2.54zm7.253-2.11h-.99l-2.094 4.834h1.122l1.454-3.538 1.454 3.538h1.147l-2.093-4.835zm4.151.034h-1.051v4.8h2.137c1.27 0 1.98-.648 1.98-1.655v-.01c0-1.041-.745-1.628-1.909-1.628h-1.157v-1.507zm-.008 2.365h1.077c.631-.009.946.324.946.77v.01c0 .517-.315.78-.955.78h-1.068v-1.56zm4.16 2.435h1.051v-1.936h2.295v1.936h1.06v-4.8h-1.06v1.9h-2.295v-1.9h-1.051v4.8zm6.92-4.8h-1.051v4.8h2.137c1.27 0 1.979-.648 1.979-1.655v-.01c0-1.041-.744-1.628-1.909-1.628h-1.156v-1.507zm-.009 2.365h1.077c.631-.009.946.324.946.77v.01c0 .517-.315.78-.955.78h-1.068v-1.56zm3.845 2.435h1.06v-4.8h-1.06v4.8zm3.337-4.8h-1.156l1.699 2.356-1.769 2.444h1.13l1.209-1.734 1.217 1.734h1.156l-1.778-2.461 1.708-2.339h-1.13l-1.147 1.638-1.139-1.638zm7.323 4.8h1.051v-3.845h2.286v3.845h1.059v-4.8h-4.396v4.8zm8.145.105c1.472 0 2.558-1.13 2.558-2.496v-.018c0-1.366-1.077-2.487-2.54-2.487-1.472 0-2.558 1.147-2.558 2.505v.017c0 1.367 1.078 2.48 2.54 2.48zm.018-.92c-.876 0-1.507-.718-1.507-1.576v-.018c0-.84.587-1.567 1.489-1.567.876 0 1.507.727 1.507 1.585v.017c0 .85-.587 1.56-1.489 1.56zm5.282-4.02l-1.726 3.89h-.543v2.154h.955v-1.209h3.731v1.209h.955V86.63h-.535l-1.734-3.889h-1.103zm.542 1.069l1.201 2.855h-2.409l1.208-2.855zm5.151 3.862c.744 0 1.252-.315 1.576-.709v.613h1.025v-2.855c0-.63-.158-1.13-.508-1.472-.342-.341-.876-.534-1.585-.534-.762 0-1.279.158-1.805.394l.281.823c.446-.184.832-.297 1.383-.297.798 0 1.218.376 1.218 1.077v.123c-.377-.132-.762-.202-1.314-.202-1.173 0-1.988.517-1.988 1.542v.017c0 .955.806 1.48 1.717 1.48zm.28-.77c-.534 0-.964-.263-.964-.754v-.017c0-.517.421-.823 1.157-.823.455 0 .84.087 1.129.192v.35c0 .623-.578 1.052-1.322 1.052zm3.731 2.128h1.051v-2.216c.351.456.859.858 1.665.858 1.147 0 2.233-.902 2.233-2.487v-.018c0-1.585-1.104-2.487-2.233-2.487-.798 0-1.306.403-1.665.92v-.824h-1.051v6.254zm2.47-2.269c-.762 0-1.436-.63-1.436-1.576v-.018c0-.946.674-1.576 1.436-1.576.762 0 1.41.63 1.41 1.576v.018c0 .972-.639 1.576-1.41 1.576zm4.756-3.985h-1.051v4.8h1.051v-1.962h.613l1.621 1.962h1.279l-2.094-2.452 2.023-2.348h-1.296l-1.559 1.918h-.587v-1.918zm6.438 4.905c1.471 0 2.558-1.13 2.558-2.496v-.018c0-1.366-1.078-2.487-2.54-2.487-1.472 0-2.558 1.147-2.558 2.505v.017c0 1.367 1.077 2.48 2.54 2.48zm.018-.92c-.876 0-1.507-.718-1.507-1.576v-.018c0-.84.587-1.567 1.489-1.567.876 0 1.507.727 1.507 1.585v.017c0 .85-.587 1.56-1.489 1.56zm3.748.815h2.444c1.095 0 1.848-.447 1.848-1.34 0-.64-.376-.963-.963-1.147.455-.202.762-.482.762-1.069 0-.797-.64-1.244-1.647-1.244h-2.444v4.8zm3.057-3.425c0 .377-.271.631-.832.631h-1.191v-1.226h1.226c.526 0 .797.236.797.595zm.202 2.024c0 .394-.307.621-.867.621h-1.358v-1.27h1.305c.622 0 .92.237.92.649zm5.027 1.401h.955l2.409-3.206v3.206h1.051v-4.8h-.999L207.9 85.93v-3.153h-1.051v4.8zm5.518-.578c.596.447 1.27.683 2.173.683 1.375 0 2.146-.64 2.146-1.419v-.009c0-.63-.43-.98-.99-1.13.482-.175.858-.499.858-1.085v-.01c0-.796-.762-1.348-1.962-1.348-.911 0-1.603.28-2.163.736l.552.674c.481-.359 1.007-.543 1.559-.543.63 0 .981.228.981.604v.01c0 .376-.307.603-.938.603h-1.033v.789h1.042c.675-.009 1.06.219 1.06.595v.01c0 .41-.412.656-1.121.656a2.836 2.836 0 01-1.638-.534l-.526.718zm10.1-4.257l-1.726 3.89h-.543v2.154h.955v-1.209h3.731v1.209h.955V86.63h-.535l-1.734-3.889h-1.103zm.542 1.069l1.201 2.855h-2.409l1.208-2.855zm5.755 3.871c.885 0 1.507-.341 1.971-.893l-.631-.552c-.376.377-.762.578-1.322.578-.736 0-1.297-.447-1.41-1.261h3.556c.008-.105.008-.202.008-.298 0-1.384-.77-2.575-2.286-2.575-1.366 0-2.338 1.12-2.338 2.496v.018c0 1.48 1.068 2.487 2.452 2.487zm-1.41-2.829c.105-.77.587-1.305 1.288-1.305.735 0 1.182.57 1.252 1.305h-2.54zm4.782 4.178h1.051v-2.216c.351.456.859.858 1.665.858 1.147 0 2.233-.902 2.233-2.487v-.018c0-1.585-1.103-2.487-2.233-2.487-.797 0-1.305.403-1.665.92v-.824h-1.051v6.254zm2.47-2.269c-.762 0-1.436-.63-1.436-1.576v-.018c0-.946.674-1.576 1.436-1.576.762 0 1.411.63 1.411 1.576v.018c0 .972-.64 1.576-1.411 1.576zm5.895.92c.885 0 1.506-.341 1.971-.893l-.631-.552c-.376.377-.762.578-1.322.578-.736 0-1.297-.447-1.411-1.261h3.557c.008-.105.008-.202.008-.298 0-1.384-.77-2.575-2.286-2.575-1.366 0-2.338 1.12-2.338 2.496v.018c0 1.48 1.068 2.487 2.452 2.487zm-1.41-2.829c.105-.77.587-1.305 1.287-1.305.736 0 1.183.57 1.253 1.305h-2.54zm4.782 2.724h2.444c1.095 0 1.848-.447 1.848-1.34 0-.64-.376-.963-.963-1.147.455-.202.762-.482.762-1.069 0-.797-.64-1.244-1.647-1.244h-2.444v4.8zm3.057-3.425c0 .377-.271.631-.832.631h-1.191v-1.226h1.226c.526 0 .797.236.797.595zm.202 2.024c0 .394-.307.621-.868.621h-1.357v-1.27h1.305c.622 0 .92.237.92.649zm3.635 1.497c.744 0 1.252-.315 1.576-.709v.613h1.025v-2.855c0-.63-.158-1.13-.508-1.472-.342-.341-.876-.534-1.585-.534-.762 0-1.279.158-1.805.394l.281.823c.446-.184.832-.297 1.384-.297.797 0 1.217.376 1.217 1.077v.123c-.377-.132-.762-.202-1.314-.202-1.174 0-1.988.517-1.988 1.542v.017c0 .955.806 1.48 1.717 1.48zm.28-.77c-.534 0-.964-.263-.964-.754v-.017c0-.517.421-.823 1.157-.823.455 0 .841.087 1.13.192v.35c0 .623-.579 1.052-1.323 1.052zM132.414 38.665c1.065 2.314 4.011 3.533 5.323 5.616 1 1.587 1.153 3.596.502 5.695-1.865 6.006-7.178 6.058-12.418 5.123-1.497-.268-3.162-.794-4.92-.922-3.705-.27-4.295.052-7.684 1.612 3.689-4.205 6.976-3.585 10.99-2.632 3.032.72 5.164 1.895 8.302.735 1.262-.467 2.9-1.433 3.658-3.38 2.674-6.868-3.859-8.72-3.753-11.847z" fill="#009100"/><path fill-rule="evenodd" clip-rule="evenodd" d="M136.812 54.847c-.444.401-.905.778-1.38 1.13l1.38-1.13zm-6.237 3.705c.027.461-1.31 1.856-1.957 2.979-.344.597-.457.62-.723 1.427l-.376 1.13c-.376 1.142-.339 2.018-.404 3.179-.039.694.223 3.423.216 4.228-.003.496.127 3.604.249 4.225.061.31.086.44.483.623.415.191.118.468-.102.441-2.742-.335-3.592-.609-6.73.103-.263.06-.276-.127-.114-.248.775-.578.482-.575.643-.923.038-.081.409-10.53.409-11.746 0-.494-.26-.782-.452-1.124l-1.856-3.018-.645-.981a18.425 18.425 0 01-5.62-2.775c1.78-1.136 3.543-1.626 5.672-1.567 5.387.148 17.947 6.608 20.534-7.604.439 6.116-4.575 12.086-13.687 11.005-4.867-.578-6.519-2.332-9.464-1.744 1.213-.025 2.577.216 4.126.739 3.67 1.238 7.338 1.676 10.985 1.188-.391.168-.787.322-1.187.463zm-11.628.214l-.825-.297a5.688 5.688 0 00-.341-.111l1.166.408z" fill="#664008"/><path fill-rule="evenodd" clip-rule="evenodd" d="M114.318 49.903c2.421-6.717-4.601-17.481 5.747-22.247 6.443-2.968 15.514 3.34 10.719 12.834 4.915 1.059 8.439 9.082 2.239 12.562-4.613 2.59-8.211-2.917-16.484-.82 4.438-3.225 7.465-.867 12.203-.316 4.243.494 6.579-3.15 4.947-6.157-2.138-3.937-4.894-2.418-5.559-2.559-2.186-.462-.22-2.768.206-3.575 2.968-5.615-.919-11.465-6.628-10.128-10.244 2.4-3.032 16.662-7.39 20.406z" fill="#664008"/><path fill-rule="evenodd" clip-rule="evenodd" d="M112.399 54.655c8.712-10.288 2.418-14.748 5.555-20.813 3.404-6.577 11.822-2.61 10.607 3.368-.191.94-.8 2.37-1.322 3.186-2.167 3.386-7.485 6.52-9.134 8.818l-.967 1.463c1.645-6.547 7.291-7.01 9.572-11.305.329-.62.517-1.118.618-1.806.427-2.914-.619-5.684-3.95-5.543-8.624.366.383 14.918-10.979 22.632z" fill="#009100"/><path fill-rule="evenodd" clip-rule="evenodd" d="M119.443 45.089c1.033-1.262 7.749-7.932 5.007-10.068-3.119-2.431-4.615 9.001-1.75 3.964.64-1.124.513-1.601-.081-2.49 2.851-.157-.316 7.26-2.386 4.285-2.5-3.592 2.812-11.066 5.816-6.676 2.892 4.229-3.751 9.177-6.606 10.985zm1.897 1.476c2.909-2.144 7.381-4.6 10.593-1.525 3.743 3.584-1.047 7.427-5.303 5.991-3.954-1.334-4.443-1.802-8.433-.617 2.412-2.435 6.167-1.167 8.873-.465 2.375.616 6.494-1.253 3.95-3.995-2.878-3.103-7.19.117-9.68.61z" fill="#009100"/><path fill-rule="evenodd" clip-rule="evenodd" d="M119.453 48.65c3.09-.728 6.432-3.057 8.778-2.158 4.467 1.712-3.165 2.508-2.972 1.297.025-.153 2.081-1.553 2.482.042.367-.498.147-.945-.405-1.151-2.437-.908-4.429 1.913-1.462 2.618 6.332 1.505 6.744-3.596 1.975-4.29-2.31-.335-6.616 2.334-8.396 3.643zm22.945-12.822c-3.404-.527-3.453-2.974-5.003-8.099a18.32 18.32 0 013.039 3.726c.379 1.302.645 2.085 1.299 2.523.255.605.477 1.223.665 1.85zm-.591 12.322a18.5 18.5 0 01-1.056 2.156c.811-4.3-.794-6.978-5.678-10.188-3.451-2.269 2.09-3.929-1.957-10.845-3.358-5.74-6.822-5.712-11.949-6.211-.057-.005-.055-.002-.001-.013a18.55 18.55 0 014.082-.343h-.001c3.512.402 6.383 1.902 8.93 5.913 2.72 4.282 1.675 6.002.994 10.073 2.175 2.302 5.632 3.348 6.49 8.181.082.462.129.884.146 1.276zm1.329-5.697c-1.439-1.439-2.986-2.814-1.04-2.81.363.001.702-.013 1.019-.038.003 0 .002 0 .002.003.003.048.05.78.053.85 0 .005.001.005-.004.005-.247.027-.51.048-.793.064.245.287.521.537.808.77.002.004.002.001.002.006-.003.383-.019.766-.045 1.149 0 .004.001.005-.002.001z" fill="#009100"/><path fill-rule="evenodd" clip-rule="evenodd" d="M142.577 45.835c-1.123-3.925-4.554-5.035-5.49-6.46-1.511-2.298 4.949-1.217 5.877-1.051.045.295.084.592.116.89l-.134-.016c-.545-.061-3.707-.628-4.788-.236 1.365 1.374 3.35 1.61 4.855 4.664.006.013.004.007.002.022a18.344 18.344 0 01-.433 2.186c-.003.011-.001.013-.005.001zm.256-8.231c-.927-.083-1.587.001-3.914-.207-4.759-.427 1.099-9.996-10.231-14.202a13.756 13.756 0 00-.473-.166c-.009-.003-.007-.002 0-.001 2.426.406 5.066 1.59 7.075 2.993.225.156.445.317.66.482l.002.003c2.897 4.465 1.328 9.36 3.085 9.572 1.95.234 2.778.242 3.517.301.108.403.202.81.282 1.22.002.008.004.005-.003.005zm-29.515 18.041l-.239-.191c.176-.07.374-.158.595-.258-.184.24-.24.338-.356.449zm-.239-.191l.239.19c-.08-.062-.16-.126-.239-.19z" fill="#009100"/><path fill-rule="evenodd" clip-rule="evenodd" d="M112.123 54.62a19.925 19.925 0 01-.397-.381c.185-1.653.844-3.757.844-3.757 1.006-4.562-1.155-11.476-.786-16.857.747-10.874 16.427-12.513 20.996-3.296 3.31 6.678-1.506 7.457 1.061 10.437-3.804-1.926 2.566-6.202-3.913-12.225-5.312-4.938-15.636-2.578-16.449 5.251-.827 7.968 2.093 10.624-.842 19.176-.241.703-.415 1.245-.514 1.653z" fill="#009100"/><path fill-rule="evenodd" clip-rule="evenodd" d="M107.509 44.268c.393-1.851.11-3.78.454-7.18.264-2.616 1.097-5.331 2.492-7.584.031-.051.072-.129.11-.172a18.336 18.336 0 017.769-5.487c-4.808 2.49-8.353 7.808-9.165 13.369-.61 4.18-.081 6.956-1.915 9.844-1.667-4.945-1.223-10.536 1.594-15.293-2.51 4.94-1.299 8.855-1.339 12.503z" fill="#009100"/><path fill-rule="evenodd" clip-rule="evenodd" d="M111.006 53.483a18.176 18.176 0 01-.709-.837c.438-1.663.58-3.347.318-5.611-.75-6.493-.803-6.673.097-13.219.498 3.652.18 5.835.693 9.62.581 4.288 1.014 6.939-.399 10.047zm-3.368-5.39c.645-2.134 1.548-4.353 2.135-2.548.496 1.526.148 3.92.046 6.474a18.099 18.099 0 01-1.12-1.734 54.73 54.73 0 01-.021-2.583c-.203.573-.379 1.08-.535 1.528l-.505-1.137z" fill="#009100"/></svg>