<svg width="19" height="19" fill="none" xmlns="http://www.w3.org/2000/svg"><path fill-rule="evenodd" clip-rule="evenodd" d="M0 9.5V15a4 4 0 004 4h11a4 4 0 004-4V4a4 4 0 00-4-4H4a4 4 0 00-4 4v5.5zm14.25-6.012c0 .041.1.075.223.075.122 0 .222.033.222.074 0 .04.052.074.115.074.149 0 .48.33.48.479 0 .063.033.115.073.115.041 0 .075.1.075.222 0 .123.033.223.074.223.048 0 .074 1.633.074 4.75s-.026 4.75-.074 4.75c-.041 0-.075.1-.075.223 0 .122-.033.222-.074.222-.04 0-.074.052-.074.115 0 .149-.33.48-.479.48-.063 0-.115.033-.115.073 0 .041-.1.075-.222.075-.123 0-.223.033-.223.074 0 .048-1.633.074-4.75.074s-4.75-.026-4.75-.074c0-.041-.1-.075-.223-.075-.122 0-.222-.033-.222-.074 0-.04-.052-.074-.115-.074-.149 0-.48-.33-.48-.479 0-.063-.032-.115-.073-.115-.041 0-.075-.1-.075-.222 0-.123-.033-.223-.074-.223-.048 0-.074-1.633-.074-4.75s.026-4.75.074-4.75c.041 0 .075-.1.075-.223 0-.122.033-.222.074-.222.04 0 .074-.052.074-.115 0-.148.33-.48.479-.48.063 0 .115-.032.115-.073 0-.041.1-.075.222-.075.123 0 .223-.033.223-.074 0-.048 1.633-.074 4.75-.074s4.75.026 4.75.074zm-2.06 1.598c-.147.158-.167.256-.167.854 0 .487.03.706.107.782.077.078.305.106.858.106.776 0 .965-.064.965-.329 0-.064.034-.116.074-.116.043 0 .075-.223.075-.52 0-.297-.032-.52-.075-.52-.04 0-.074-.052-.074-.116 0-.26-.19-.329-.904-.324-.631.004-.706.02-.859.183zM8.758 7.05c0 .04-.067.074-.149.074-.081 0-.148.033-.148.074 0 .041-.067.074-.149.074-.081 0-.148.034-.148.075 0 .04-.051.074-.114.074-.147 0-.628.48-.628.628 0 .063-.034.114-.074.114-.041 0-.075.067-.075.149 0 .081-.033.148-.074.148-.04 0-.074.067-.074.148 0 .082-.033.149-.074.149-.045 0-.074.297-.074.742s.03.742.074.742c.04 0 .074.067.074.149 0 .081.033.148.074.148.041 0 .074.06.074.132 0 .073.067.18.149.24.082.058.148.151.148.206 0 .13.183.313.313.313.055 0 .148.066.207.148.059.082.166.149.239.149.072 0 .132.033.132.074 0 .04.067.074.148.074.082 0 .149.033.149.074 0 .045.297.074.742.074s.742-.03.742-.074c0-.04.067-.074.149-.074.081 0 .148-.033.148-.074 0-.041.06-.074.132-.074.073 0 .18-.067.24-.149.058-.082.151-.148.206-.148.13 0 .313-.183.313-.313 0-.055.066-.148.148-.207.082-.059.149-.166.149-.239 0-.072.033-.132.074-.132.04 0 .074-.067.074-.148 0-.082.033-.149.074-.149.045 0 .074-.297.074-.742s-.03-.742-.074-.742c-.04 0-.074-.067-.074-.149 0-.081-.033-.148-.074-.148-.041 0-.074-.067-.074-.149 0-.081-.034-.148-.075-.148-.04 0-.074-.051-.074-.114 0-.147-.48-.628-.628-.628-.063 0-.114-.034-.114-.074 0-.041-.067-.075-.149-.075-.081 0-.148-.033-.148-.074 0-.04-.067-.074-.148-.074-.082 0-.149-.033-.149-.074 0-.045-.297-.074-.742-.074s-.742.03-.742.074zm4.546 1.67c-.063.07-.093.382-.093.961 0 .522-.03.857-.074.857-.041 0-.075.1-.075.223 0 .122-.033.222-.074.222-.04 0-.074.067-.074.149 0 .082-.033.148-.074.148-.041 0-.074.05-.074.113 0 .146-1.226 1.372-1.372 1.372-.062 0-.113.033-.113.074 0 .04-.067.074-.148.074-.082 0-.149.034-.149.074 0 .041-.133.075-.296.075-.164 0-.297.033-.297.074 0 .045-.347.074-.891.074s-.89-.029-.89-.074c0-.041-.134-.075-.297-.075-.164 0-.297-.033-.297-.074 0-.04-.067-.074-.149-.074-.081 0-.148-.033-.148-.074 0-.041-.05-.074-.113-.074-.146 0-1.372-1.226-1.372-1.372 0-.062-.033-.113-.074-.113-.04 0-.074-.067-.074-.148 0-.082-.033-.149-.074-.149-.041 0-.074-.133-.074-.296 0-.164-.034-.297-.075-.297-.045 0-.074-.322-.074-.817v-.222a.594.594 0 10-1.187 0v4.425a.622.622 0 00.622.622h8.553a.622.622 0 00.621-.621V9.049a.29.29 0 00-.29-.291c-.163 0-.308-.04-.329-.093-.028-.07-.058-.065-.123.019-.064.084-.095.088-.123.018-.048-.119-.113-.113-.23.018z" fill="#009100"/></svg>