<svg width="34" height="34" fill="none" xmlns="http://www.w3.org/2000/svg"><path fill-rule="evenodd" clip-rule="evenodd" d="M26.897 24.006c-.41 1.16-2.039 2.119-3.337 2.4-.89.188-2.049.338-5.956-1.281-4.387-1.818-10.48-8.293-10.48-12.602 0-2.194 1.265-4.748 3.476-4.748 1.065 0 1.3.02 1.65.86.41.99 1.409 3.428 1.528 3.678.491 1.026-.5 1.626-1.22 2.519-.229.268-.489.56-.198 1.06.289.489 1.289 2.118 2.757 3.426 1.898 1.69 3.436 2.23 3.987 2.459.41.17.9.13 1.198-.189.38-.41.85-1.09 1.33-1.76.338-.48.768-.54 1.219-.37.304.106 4.171 1.902 4.335 2.19.12.209.12 1.198-.29 2.358zM17.003 0h-.008C7.623 0 0 7.625 0 17a16.87 16.87 0 003.237 9.963l-2.118 6.318 6.533-2.088A16.869 16.869 0 0017.003 34C26.375 34 34 26.375 34 17S26.375 0 17.003 0z" fill="#009100"/></svg>