<svg width="19" height="19" fill="none" xmlns="http://www.w3.org/2000/svg"><path fill-rule="evenodd" clip-rule="evenodd" d="M0 9.5V15a4 4 0 004 4h11a4 4 0 004-4V4a4 4 0 00-4-4H4a4 4 0 00-4 4v5.5zm13.21-3.785c0 .04.068.074.15.074.081 0 .148.033.148.074 0 .041.067.074.148.074.082 0 .149.034.149.075 0 .04.051.074.114.074.14 0 .48.327.48.463 0 .054.066.146.148.205a.405.405 0 01.148.313c0 .114.034.206.075.206.047 0 .074.792.074 2.227 0 1.435-.027 2.227-.074 2.227-.041 0-.075.092-.075.206 0 .12-.061.25-.148.313-.082.059-.149.151-.149.205 0 .136-.338.463-.479.463-.063 0-.114.034-.114.074 0 .041-.067.075-.149.075-.081 0-.148.033-.148.074 0 .04-.067.074-.149.074-.081 0-.148.033-.148.074 0 .049-1.287.074-3.711.074-2.425 0-3.71-.025-3.71-.074 0-.04-.068-.074-.15-.074-.081 0-.148-.034-.148-.074 0-.041-.067-.075-.148-.075-.082 0-.149-.033-.149-.074 0-.04-.051-.074-.114-.074-.14 0-.48-.327-.48-.463 0-.054-.066-.146-.148-.205a.406.406 0 01-.148-.313c0-.114-.034-.206-.075-.206-.047 0-.074-.792-.074-2.227 0-1.435.027-2.227.074-2.227.041 0 .075-.092.075-.206 0-.121.061-.25.148-.313.082-.059.149-.151.149-.205 0-.136.338-.463.479-.463.063 0 .114-.033.114-.074 0-.041.067-.074.149-.074.081 0 .148-.034.148-.075 0-.04.067-.074.149-.074.081 0 .148-.033.148-.074 0-.049 1.286-.074 3.711-.074s3.71.025 3.71.074zM8.313 9.5c0 1.336.027 2.078.075 2.078.04 0 .074-.033.074-.074 0-.04.06-.074.132-.074.073 0 .18-.067.239-.149.059-.081.16-.148.223-.148s.163-.067.222-.149c.06-.081.16-.148.223-.148.064 0 .164-.067.223-.149.059-.081.159-.148.222-.148.064 0 .164-.067.223-.148.059-.082.153-.149.21-.149.055 0 .195-.1.31-.223.114-.122.247-.222.294-.222.11 0 .3-.186.3-.295 0-.115-.344-.447-.463-.447-.055 0-.147-.067-.206-.149-.059-.081-.159-.148-.222-.148-.064 0-.164-.067-.223-.149-.059-.081-.16-.148-.223-.148s-.163-.067-.222-.149c-.06-.081-.16-.148-.223-.148-.064 0-.164-.067-.223-.148-.059-.082-.153-.149-.209-.149-.056 0-.196-.1-.31-.222-.115-.123-.262-.223-.327-.223-.106 0-.118.223-.118 2.078z" fill="#009100"/></svg>