<svg width="263" height="271" fill="none" xmlns="http://www.w3.org/2000/svg"><g opacity=".15" fill-rule="evenodd" clip-rule="evenodd" fill="#fff"><path d="M137.441 91.52c17.987-6.288 29.155-27.351 45.597-35.643 12.526-6.317 27.593-6.034 42.76.31 43.393 18.153 40.004 57.75 29.317 96.098-3.052 10.954-8.152 22.981-10.357 35.975-4.648 27.397-2.666 32.02 6.544 58.362-28.686-30.455-21.738-54.49-11.787-83.697 7.516-22.064 17.774-37.108 11.365-61.297-2.576-9.727-8.603-22.608-22.567-29.638-49.234-24.789-67.666 22.545-90.872 19.53z"/><path d="M261.048 70.274a136.567 136.567 0 017.436 11.072l-7.436-11.072zm23.156 49.066c3.457.129 12.889 11.071 20.79 16.688 4.202 2.988 4.3 3.844 10.115 6.397l8.142 3.6c8.241 3.615 14.788 3.958 23.385 5.269 5.139.784 25.647.773 31.634 1.393 3.696.382 26.925 1.616 31.635 1.15 2.355-.232 3.343-.329 4.984-3.154 1.72-2.955 3.57-.543 3.214 1.074-4.441 20.179-7.088 26.313-4.015 50.182.256 1.998-1.144 1.967-1.931.67-3.752-6.181-3.94-3.994-6.413-5.439-61.929-16.308-78.115-10.528-87.166-11.392-3.677-.35-6.007 1.384-8.695 2.568l-23.789 11.675-7.762 4.11c-5.401 13.421-13.018 26.214-22.9 37.844a148.72 148.72 0 01-1.753 2.024c-7.19-14.056-9.589-27.531-7.641-43.34 4.931-40.008 61.953-128.94-42.025-158.295 45.851 1.079 86.736 42.65 72.211 109.723-7.759 35.835-21.99 46.888-19.705 69.231.678-9.05 3.439-19.03 8.432-30.194 11.831-26.451 17.695-53.449 16.651-80.948a138.885 138.885 0 012.602 9.164zm-6.666 86.731c-.887 1.879-1.821 3.852-2.799 5.932a43.144 43.144 0 00-1.067 2.462l3.866-8.394z"/><path d="M208.259 234.243c-48.293-22.796-133.43 21.839-161.565-58.591-17.519-50.084 35.897-113.144 103.171-70.697 11.38-35.845 73.618-56.383 95.129-7.747 16.004 36.185-27.557 59.063-17.821 122.15-20.858-35.335-1.145-56.197 6.323-91.081 6.688-31.245-18.791-51.224-42.333-41.207-30.834 13.122-21.48 34.722-22.999 39.57-4.998 15.949-20.77-.328-26.473-4.075-39.706-26.085-86.021-1.3-80.118 42.159 10.592 77.979 121.905 34.412 146.686 69.519z"/><path d="M242.274 251.909c-70.412-72.178-108.092-28.478-151.016-56.148-46.556-30.014-11.034-89.875 32.609-76.585 6.863 2.09 17.085 7.645 22.782 12.107 23.677 18.543 43.225 60.362 59.169 74.276l10.21 8.239c-47.585-16.899-47.014-59.265-77.377-79.305-4.379-2.89-7.955-4.642-13.01-5.883-21.395-5.251-42.763.57-44.077 25.475-3.402 64.474 111.346 7.743 160.71 97.824z"/><path d="M176.053 192.662c-8.662-8.582-53.553-63.326-71.408-44.429-20.313 21.499 63.745 40.753 28.274 15.843-7.918-5.561-11.556-4.952-18.6-1.161.856-21.345 53.829 7.504 30.215 20.805-28.519 16.064-80.402-28.798-45.576-48.042 33.539-18.533 65.664 34.442 77.095 56.984zm12.337-13.071c-13.895-23.184-28.998-58.229-3.826-79.958 29.339-25.326 54.557 13.068 40.84 43.741-12.74 28.49-16.575 31.802-10.584 62.352-16.42-19.692-4.31-46.749 2.838-66.396 6.274-17.246-4.712-49.244-26.938-32.254-25.152 19.227-4.237 53.621-2.33 72.515z"/><path d="M202.581 195.121c-3.231-23.523-18.2-50.065-9.837-66.896 15.922-32.043 16.424 25.353 7.543 23.051-1.119-.29-10.081-16.594 2.083-18.446-3.451-3.092-6.937-1.77-8.862 2.197-8.493 17.499 11.1 34.336 18.457 12.743 15.7-46.079-21.988-52.768-30.536-17.749-4.14 16.962 12.672 50.917 21.152 65.1zM123.405 15.169c-6.34 24.971-24.592 23.598-63.856 31.5 9.2-8.08 19.269-14.75 29.903-19.986 9.961-1.895 15.98-3.318 19.707-7.877a138.014 138.014 0 0114.246-3.637zm91.322 13.155a137.68 137.68 0 0115.306 9.393c-31.441-9.093-52.518.952-79.891 35.041-19.338 24.082-27.766-18.354-82.136 6.865-45.12 20.928-47.379 46.738-54.735 84.556-.08.422-.056.411-.096 0a138.75 138.75 0 01.348-30.64l-.002.013c5.484-25.87 18.698-46.174 50.368-62.295 33.813-17.209 45.879-8.21 75.707-.24 18.69-14.566 28.932-39.56 65.527-42.515 3.499-.283 6.675-.335 9.604-.178zm-41.466-13.941c-11.737 9.69-23.077 20.231-21.661 5.748.263-2.704.4-5.238.44-7.62.002-.019-.005-.017.02-.014.363.012 5.847.183 6.368.216.035.002.04-.01.036.03.023 1.855-.002 3.835-.087 5.949 2.311-1.622 4.366-3.496 6.314-5.467.02-.017.004-.012.039-.009 2.849.293 5.691.68 8.524 1.147.032.005.036 0 .007.02z"/><path d="M198.047 20.941c-30.025 5.576-40.732 30.332-52 36.293-18.184 9.62-5.546-37.718-3.655-44.505 2.232-.13 4.468-.208 6.705-.231l-.205.985c-.848 4.015-7.315 27.155-5.162 35.48 11.197-9.185 14.369-23.8 38.176-32.834.098-.036.054-.028.167-.002a137.576 137.576 0 0115.964 4.778c.085.03.097.02.01.036zm-61.109-7.747c-1.273 6.839-1.115 11.815-4.322 28.992-6.559 35.131-73.643-15.285-113.012 66.093a101.704 101.704 0 00-1.57 3.399c-.028.067-.02.055-.008-.001 4.743-17.77 15.443-36.591 27.308-50.553a141.44 141.44 0 014.056-4.567l.026-.019c35.304-18.394 70.642-3.231 73.465-16.17 3.129-14.348 3.776-20.513 4.741-25.973a138.72 138.72 0 019.276-1.233c.067-.004.045-.02.04.032zM250.299 245.77l-1.59 1.64a108.816 108.816 0 00-1.502-4.615c1.658 1.543 2.352 2.028 3.092 2.975zm-1.59 1.641l1.59-1.641c-.526.552-1.056 1.099-1.59 1.641z"/><path d="M241.825 253.939a143.059 143.059 0 01-3.127 2.685c-12.172-2.55-27.371-8.95-27.371-8.95-33.255-10.733-86.267.446-126.074-6.128C4.82 228.265 3.757 110.351 75.632 82.878c52.071-19.902 54.455 16.508 78.46-.485-17.044 26.954-44.353-23.514-93.805 20.45-40.537 36.039-30.3 114.588 27.42 126.204 58.737 11.82 80.589-8.039 142.182 19.892 5.058 2.294 8.973 3.973 11.936 5z"/><path d="M161.467 280.939c-13.505-4.243-28.068-3.507-53.134-8.476-19.293-3.826-38.92-11.962-54.707-23.944-.357-.269-.907-.632-1.202-.941-17.492-17.622-29.337-39.019-35.337-61.745l-.001-.003c15.13 37.569 52.203 67.742 93.032 77.739 30.692 7.514 51.737 5.545 71.943 21.252-38.005 8.9-79.321 1.622-112.742-22.737h-.001c34.998 22.199 65.011 15.963 92.149 18.855z"/><path d="M232.561 261.448a136.474 136.474 0 01-6.733 4.683c-12.071-4.441-24.513-6.694-41.555-6.355-48.875.971-50.259 1.243-98.355-10.112 27.542-1.115 43.575 2.808 72.122 1.675 32.334-1.283 52.381-2.622 74.521 10.109zm-42.523 21.251c-15.433-6.319-31.315-14.622-17.457-17.711 11.717-2.611 29.288 1.68 48.236 4.259l.001.001a136.743 136.743 0 01-13.707 7.107v-.001c-6.988-.458-13.63-1.04-19.248-1.681 4.126 1.922 7.768 3.594 10.995 5.07l-8.82 2.956z"/></g></svg>